<svg width="650" height="390" viewBox="0 0 650 390" fill="none" xmlns="http://www.w3.org/2000/svg">
<path fill-rule="evenodd" clip-rule="evenodd" d="M70.4101 371.136C115.535 397.161 169.088 395.393 211.205 371.15L211.192 371.126C211.333 371.047 211.475 370.967 211.616 370.886C227.135 361.935 232.453 342.112 223.492 326.609C214.532 311.106 194.687 305.794 179.168 314.745C178.911 314.893 178.658 315.044 178.407 315.198C167.321 321.53 154.482 325.149 140.797 325.149C98.8906 325.149 64.9189 291.214 64.9189 249.352C64.9189 207.491 98.8906 173.556 140.797 173.556C154.205 173.556 166.8 177.03 177.731 183.126C177.921 183.24 178.112 183.353 178.304 183.464C193.824 192.415 213.668 187.103 222.628 171.6C231.514 156.224 226.356 136.597 211.129 127.544L211.131 127.54C143.808 88.7504 57.747 111.8 18.8835 179.042C-19.9899 246.3 3.07931 332.304 70.4101 371.136Z" fill="#C54DC1"/>
<mask id="mask0" mask-type="alpha" maskUnits="userSpaceOnUse" x="0" y="108" width="228" height="282">
<path fill-rule="evenodd" clip-rule="evenodd" d="M70.4101 371.136C115.535 397.161 169.088 395.393 211.205 371.15L211.192 371.126C211.333 371.047 211.475 370.967 211.616 370.886C227.135 361.935 232.453 342.112 223.492 326.609C214.532 311.106 194.687 305.794 179.168 314.745C178.911 314.893 178.658 315.044 178.407 315.198C167.321 321.53 154.482 325.149 140.797 325.149C98.8906 325.149 64.9189 291.214 64.9189 249.352C64.9189 207.491 98.8906 173.556 140.797 173.556C154.205 173.556 166.8 177.03 177.731 183.126C177.921 183.24 178.112 183.353 178.304 183.464C193.824 192.415 213.668 187.103 222.628 171.6C231.514 156.224 226.356 136.597 211.129 127.544L211.131 127.54C143.808 88.7504 57.747 111.8 18.8835 179.042C-19.9899 246.3 3.07931 332.304 70.4101 371.136Z" fill="#CFCCE1"/>
</mask>
<g mask="url(#mask0)">
<path d="M256.587 289.222C256.587 353.115 204.735 404.911 140.773 404.911C76.8113 404.911 24.9598 353.115 24.9598 289.222C24.9598 225.328 76.8113 173.532 140.773 173.532C201.675 185.5 256.587 225.328 256.587 289.222Z" fill="url(#paint0_linear)"/>
</g>
<path fill-rule="evenodd" clip-rule="evenodd" d="M649.953 32.413C649.953 32.5795 649.952 32.7458 649.949 32.9117H649.953V245.854C650.6 270.881 644.566 296.395 631.117 319.664C592.243 386.923 506.148 409.968 438.817 371.136C371.486 332.304 348.417 246.3 387.29 179.042C426.164 111.783 512.259 88.7385 579.59 127.57C581.446 128.641 583.269 129.747 585.058 130.888V32.9117H585.061C585.059 32.7458 585.057 32.5795 585.057 32.413C585.057 14.5118 599.585 0 617.505 0C635.426 0 649.953 14.5118 649.953 32.413ZM585.058 247.45C584.047 206.468 550.473 173.556 509.203 173.556C467.297 173.556 433.326 207.491 433.326 249.352C433.326 291.214 467.297 325.149 509.203 325.149C550.893 325.149 584.73 291.563 585.078 250.001C585.07 249.778 585.065 249.555 585.061 249.331H585.058V248.832V247.45Z" fill="url(#paint1_linear)"/>
<mask id="mask1" mask-type="alpha" maskUnits="userSpaceOnUse" x="368" y="0" width="282" height="390">
<path fill-rule="evenodd" clip-rule="evenodd" d="M649.953 32.413C649.953 32.5795 649.952 32.7458 649.949 32.9117H649.953V245.854C650.6 270.881 644.566 296.395 631.117 319.664C592.243 386.923 506.148 409.968 438.817 371.136C371.486 332.304 348.417 246.3 387.29 179.042C426.164 111.783 512.259 88.7385 579.59 127.57C581.446 128.641 583.269 129.747 585.058 130.888V32.9117H585.061C585.059 32.7458 585.057 32.5795 585.057 32.413C585.057 14.5118 599.585 0 617.505 0C635.426 0 649.953 14.5118 649.953 32.413ZM585.058 247.45C584.047 206.468 550.473 173.556 509.203 173.556C467.297 173.556 433.326 207.491 433.326 249.352C433.326 291.214 467.297 325.149 509.203 325.149C550.893 325.149 584.73 291.563 585.078 250.001C585.07 249.778 585.065 249.555 585.061 249.331H585.058V248.832V247.45Z" fill="#7324F6"/>
</mask>
<g mask="url(#mask1)">
<path d="M649.953 249.331C649.953 326.995 586.927 389.954 509.18 389.954C431.433 389.954 368.407 326.995 368.407 249.331C368.407 171.667 431.433 108.709 509.18 108.709C586.927 108.709 649.953 171.667 649.953 249.331Z" fill="#C54DC1"/>
<path d="M649.953 289.223C649.953 353.117 573.142 404.913 509.18 404.913C445.218 404.913 393.366 353.117 393.366 289.223C393.366 225.33 445.218 173.534 509.18 173.534C509.18 235.213 612.592 263.108 649.953 269.277C649.953 269.277 649.953 259.394 649.953 289.223Z" fill="url(#paint2_linear)"/>
<rect x="368.407" y="108.709" width="216.651" height="140.623" fill="url(#paint3_linear)"/>
<path fill-rule="evenodd" clip-rule="evenodd" d="M649.949 32.9117C649.952 32.7458 649.953 32.5795 649.953 32.413C649.953 14.5118 635.426 0 617.505 0C599.585 0 585.057 14.5118 585.057 32.413C585.057 32.5795 585.059 32.7458 585.061 32.9117H585.058V249.331H449.276V389.953H649.953V32.9117H649.949Z" fill="url(#paint4_linear)"/>
</g>
<path fill-rule="evenodd" clip-rule="evenodd" d="M298.02 78.7892C315.94 78.7892 330.468 64.2774 330.468 46.3762C330.468 28.475 315.94 13.9632 298.02 13.9632C280.099 13.9632 265.572 28.475 265.572 46.3762C265.572 64.2774 280.099 78.7892 298.02 78.7892ZM330.468 141.122C330.468 141.288 330.466 141.454 330.464 141.619H330.468V357.509L330.468 357.54L330.468 357.572V358.038H330.464C330.197 375.71 315.774 389.953 298.02 389.953C280.266 389.953 265.842 375.71 265.576 358.038H265.572V141.619H265.576C265.573 141.454 265.572 141.288 265.572 141.122C265.572 123.221 280.099 108.709 298.02 108.709C315.94 108.709 330.468 123.221 330.468 141.122Z" fill="url(#paint5_linear)"/>
<mask id="mask2" mask-type="alpha" maskUnits="userSpaceOnUse" x="265" y="13" width="66" height="377">
<path fill-rule="evenodd" clip-rule="evenodd" d="M298.02 78.7892C315.94 78.7892 330.468 64.2774 330.468 46.3762C330.468 28.475 315.94 13.9632 298.02 13.9632C280.099 13.9632 265.572 28.475 265.572 46.3762C265.572 64.2774 280.099 78.7892 298.02 78.7892ZM330.468 141.122C330.468 141.288 330.466 141.454 330.464 141.619H330.468V357.509L330.468 357.54L330.468 357.572V358.038H330.464C330.197 375.71 315.774 389.953 298.02 389.953C280.266 389.953 265.842 375.71 265.576 358.038H265.572V141.619H265.576C265.573 141.454 265.572 141.288 265.572 141.122C265.572 123.221 280.099 108.709 298.02 108.709C315.94 108.709 330.468 123.221 330.468 141.122Z" fill="url(#paint6_linear)"/>
</mask>
<g mask="url(#mask2)">
<rect x="265" y="13" width="66" height="66" fill="url(#paint7_linear)"/>
</g>
<mask id="mask3" mask-type="alpha" maskUnits="userSpaceOnUse" x="265" y="13" width="66" height="377">
<path fill-rule="evenodd" clip-rule="evenodd" d="M298.02 78.7892C315.94 78.7892 330.468 64.2774 330.468 46.3762C330.468 28.475 315.94 13.9632 298.02 13.9632C280.099 13.9632 265.572 28.475 265.572 46.3762C265.572 64.2774 280.099 78.7892 298.02 78.7892ZM330.468 141.122C330.468 141.288 330.466 141.454 330.464 141.619H330.468V357.509L330.468 357.54L330.468 357.572V358.038H330.464C330.197 375.71 315.774 389.953 298.02 389.953C280.266 389.953 265.842 375.71 265.576 358.038H265.572V141.619H265.576C265.573 141.454 265.572 141.288 265.572 141.122C265.572 123.221 280.099 108.709 298.02 108.709C315.94 108.709 330.468 123.221 330.468 141.122Z" fill="url(#paint8_linear)"/>
</mask>
<g mask="url(#mask3)">
<rect x="265" y="108" width="66" height="282" fill="url(#paint9_linear)"/>
</g>
<defs>
<linearGradient id="paint0_linear" x1="73.881" y1="188.991" x2="186.017" y2="389.057" gradientUnits="userSpaceOnUse">
<stop stop-color="#61277E"/>
<stop offset="1" stop-color="#A14ECA"/>
</linearGradient>
<linearGradient id="paint1_linear" x1="649.953" y1="282.74" x2="368.407" y2="282.74" gradientUnits="userSpaceOnUse">
<stop offset="0.242833" stop-color="#7324F6"/>
<stop offset="0.63551" stop-color="#6821DE"/>
<stop offset="1" stop-color="#6620DA"/>
</linearGradient>
<linearGradient id="paint2_linear" x1="447.559" y1="188.992" x2="553.474" y2="398.32" gradientUnits="userSpaceOnUse">
<stop stop-color="#61277E"/>
<stop offset="1" stop-color="#A14ECA"/>
</linearGradient>
<linearGradient id="paint3_linear" x1="588.053" y1="249.331" x2="368.407" y2="249.331" gradientUnits="userSpaceOnUse">
<stop stop-color="#61277E"/>
<stop offset="0.314536" stop-color="#C54DC1" stop-opacity="0"/>
</linearGradient>
<linearGradient id="paint4_linear" x1="649.953" y1="389.953" x2="449.276" y2="389.953" gradientUnits="userSpaceOnUse">
<stop offset="0.474889" stop-color="#C54DC1"/>
<stop offset="0.70675" stop-color="#BB4DC3" stop-opacity="0.72225"/>
<stop offset="1" stop-color="#A14ECA" stop-opacity="0"/>
</linearGradient>
<linearGradient id="paint5_linear" x1="275.556" y1="13.9632" x2="308.943" y2="87.2934" gradientUnits="userSpaceOnUse">
<stop stop-color="#C54DC0"/>
<stop offset="0.655486" stop-color="#C34DC1"/>
<stop offset="1" stop-color="#A14ECA"/>
</linearGradient>
<linearGradient id="paint6_linear" x1="275.556" y1="13.9632" x2="308.943" y2="87.2934" gradientUnits="userSpaceOnUse">
<stop stop-color="#C54DC0"/>
<stop offset="0.655486" stop-color="#C34DC1"/>
<stop offset="1" stop-color="#A14ECA"/>
</linearGradient>
<linearGradient id="paint7_linear" x1="275.154" y1="13" x2="309.169" y2="87.6308" gradientUnits="userSpaceOnUse">
<stop stop-color="#C54DC0"/>
<stop offset="0.655486" stop-color="#C34DC1"/>
<stop offset="1" stop-color="#A14ECA"/>
</linearGradient>
<linearGradient id="paint8_linear" x1="275.556" y1="13.9632" x2="308.943" y2="87.2934" gradientUnits="userSpaceOnUse">
<stop stop-color="#C54DC0"/>
<stop offset="0.655486" stop-color="#C34DC1"/>
<stop offset="1" stop-color="#A14ECA"/>
</linearGradient>
<linearGradient id="paint9_linear" x1="280.231" y1="108" x2="348.778" y2="415.451" gradientUnits="userSpaceOnUse">
<stop stop-color="#C54DC1"/>
<stop offset="0.273566" stop-color="#A14ECA"/>
<stop offset="0.529369" stop-color="#9647BC"/>
<stop offset="1" stop-color="#61277E"/>
</linearGradient>
</defs>
</svg>
