<svg width="30" height="24" viewBox="0 0 30 24" fill="none" xmlns="http://www.w3.org/2000/svg">
<g clip-path="url(#clip0)">
<path d="M18.2499 17.4775H11.7605V5.60864H18.2499V17.4775Z" fill="#FF5F00"/>
<path d="M12.167 11.5C12.167 9.10776 13.2747 6.97683 14.9997 5.60357C13.7383 4.59937 12.1463 4 10.4161 4C6.32022 4 3 7.35781 3 11.5C3 15.6422 6.32022 19 10.4161 19C12.1463 19 13.7383 18.4006 14.9997 17.3964C13.2747 16.0232 12.167 13.8922 12.167 11.5Z" fill="#EB001B"/>
<path d="M27.0001 11.5C27.0001 15.6422 23.6799 19 19.584 19C17.8539 19 16.2619 18.4006 15 17.3964C16.7254 16.0232 17.8331 13.8922 17.8331 11.5C17.8331 9.10776 16.7254 6.97683 15 5.60357C16.2619 4.59937 17.8539 4 19.584 4C23.6799 4 27.0001 7.35781 27.0001 11.5Z" fill="#F79E1B"/>
</g>
<defs>
<clipPath id="clip0">
<rect x="3" y="4" width="24" height="15" fill="white"/>
</clipPath>
</defs>
</svg>
