<svg width="30" height="24" viewBox="0 0 30 24" fill="none" xmlns="http://www.w3.org/2000/svg">
<path d="M11.3889 7.17921L7.46528 16.8566H4.89583L2.95139 9.1147C2.84722 8.64875 2.74306 8.46953 2.39583 8.29032C1.80556 7.96774 0.833333 7.64516 0 7.46595L0.0694444 7.17921H4.16667C4.6875 7.17921 5.17361 7.53763 5.27778 8.1828L6.28472 13.7742L8.81944 7.17921H11.3889ZM21.4236 13.7025C21.4236 11.1577 17.9861 11.0143 18.0208 9.86738C18.0208 9.50896 18.3333 9.15054 19.0625 9.04301C19.4097 9.00717 20.3819 8.97133 21.4583 9.47312L21.875 7.43011C21.2847 7.21505 20.5556 7 19.6181 7C17.2222 7 15.5208 8.32616 15.5208 10.19C15.5208 11.5878 16.7361 12.3763 17.6389 12.8065C18.5764 13.2724 18.8889 13.595 18.8889 14.0251C18.8889 14.6703 18.125 14.957 17.4306 14.957C16.2153 14.9928 15.5208 14.6344 14.9306 14.3477L14.4792 16.4624C15.0347 16.7491 16.0764 16.9642 17.1875 16.9642C19.7569 17 21.4236 15.7097 21.4236 13.7025ZM27.7431 16.8566H30L28.0556 7.17921H25.9722C25.5208 7.17921 25.1042 7.46595 24.9306 7.89606L21.2847 16.8566H23.8194L24.3403 15.4229H27.4653L27.7431 16.8566ZM25.0694 13.4158L26.3542 9.7957L27.0833 13.4158H25.0694ZM14.8611 7.17921L12.8472 16.8566H10.4167L12.4306 7.17921H14.8611Z" fill="#10357F"/>
</svg>
