<svg width="128" height="128" viewBox="0 0 128 128" fill="none" xmlns="http://www.w3.org/2000/svg">
<path d="M64.2582 114.882C90.1215 114.882 111.088 93.9153 111.088 68.052C111.088 42.1888 90.1215 21.2225 64.2582 21.2225C38.395 21.2225 17.4287 42.1888 17.4287 68.052C17.4287 93.9153 38.395 114.882 64.2582 114.882Z" fill="#E0E0E7"/>
<path d="M100.047 98.2555C91.4569 108.424 78.6117 114.882 64.2582 114.882C52.1976 114.882 41.202 110.322 32.9006 102.833C32.6538 102.611 32.3759 102.366 32.3759 102.366C32.3759 102.366 31.3386 94.9512 31.3858 91.1244C31.4793 83.5564 35.3407 69.6939 36.0346 68.1722C38.5573 63.8743 49.1151 62.5662 57.1503 62.0991C65.1855 61.6319 84.6194 65.7429 84.6194 65.7429L89.7582 74.619C89.7582 74.619 100.45 93.6247 100.917 95.4933C101.02 95.906 100.725 96.9046 100.047 98.2555Z" fill="url(#paint0_radial)"/>
<path d="M75.7468 64.6161C75.7468 64.6161 94.125 56.437 93.9113 50.0264C93.6976 43.6158 89.1637 27.9044 86.2788 24.5886C83.7496 21.6816 80.4482 19.1615 72.8618 18.0562C65.2755 16.9509 58.3837 17.918 56.9946 18.8023C55.6056 19.6865 49.5418 23.8313 47.6185 26.2629C45.6953 28.6945 39.7384 35.1328 41.448 39.4434C43.1576 43.754 42.3028 43.3947 43.0507 49.4738C43.7987 55.5528 54.9111 65.6109 75.7468 64.6161Z" fill="url(#paint1_radial)"/>
<path d="M34.4393 74.3814C34.4393 74.3814 40.2453 66.6628 49.559 65.3434C57.9679 64.1521 64.0643 65.7639 71.2119 71.6501C78.3595 77.5363 81.5829 79.0079 85.507 79.5685C89.4312 80.1291 91.8137 79.7086 91.8137 79.7086C91.8137 79.7086 95.3174 85.3871 97.4197 88.9609C99.5219 92.5347 99.9423 95.618 100.012 96.7392C100.082 97.8604 100.853 100.453 101.834 101.364C102.815 102.275 103.096 101.925 103.096 101.925C103.096 101.925 103.236 104.167 104.567 105.569C105.899 106.97 107.3 108.021 108.211 107.601C109.122 107.18 109.192 106.69 109.192 106.69C109.192 106.69 111.715 107.671 112.486 107.18C113.256 106.69 115.148 104.027 115.429 103.396C115.709 102.766 115.779 102.415 115.779 102.415C115.779 102.415 118.372 101.154 118.722 99.7524C119.073 98.3509 119.563 93.726 118.792 90.7128C118.021 87.6996 118.092 88.05 118.092 88.05C118.092 88.05 120.754 88.7507 121.665 87.6295C122.576 86.5083 123.487 84.4762 122.857 83.1448C122.226 81.8134 120.684 82.444 120.124 82.1637C119.563 81.8834 113.627 78.2611 113.627 78.2611C113.627 78.2611 110.453 71.5125 105.829 68.289C101.204 65.0656 100.082 61.5619 99.5219 60.5108C98.9613 59.4597 97.4197 51.9618 96.2985 45.0244C95.1773 38.0871 92.6961 35.0268 92.2056 34.4662C91.7151 33.9056 92.187 33.4639 91.2059 33.3237C90.2249 33.1836 90.2063 32.5621 90.2063 32.5621L90.8251 34.5614C90.8251 34.5614 91.6199 38.7996 92.1104 40.131C92.6009 41.4624 93.3719 48.771 90.5871 53.1742C87.5208 58.0226 81.9233 58.9342 81.9233 58.9342C81.9233 58.9342 72.8614 63.1768 63.2153 60.9335C55.0276 59.0294 52.6734 55.5059 50.8623 53.5075C46.7209 48.9376 43.9805 42.1121 43.7219 37.37C43.5077 33.4428 45.507 29.4441 45.507 29.4441C45.507 29.4441 42.7222 29.6583 37.2493 43.2258C30.9003 58.9653 28.9338 61.5386 28.9338 61.5386C28.9338 61.5386 26.925 62.543 22.5104 66.4671C18.0957 70.3913 18.8665 71.7928 14.9423 72.4234C11.0182 73.0541 7.58456 72.3533 6.25315 73.4745C4.92174 74.5957 4.36114 76.4877 5.90278 77.6089C7.44441 78.7301 8.49552 79.1505 9.75686 79.1505C11.0182 79.1505 11.9292 79.0805 11.9292 79.0805C11.9292 79.0805 8.77582 83.2148 8.21522 87.2091C7.65463 91.2033 6.95389 93.5858 8.98604 95.4778C11.0182 97.3698 13.0503 97.0195 13.0503 97.0195C13.0503 97.0195 13.8212 99.8925 15.7832 100.243C17.7453 100.593 17.9555 100.593 18.7264 99.9626C19.4972 99.3319 20.1979 98.7713 20.1979 98.7713C20.1979 98.7713 21.3892 100.313 22.7907 99.8224C24.1921 99.3319 25.2432 97.0895 25.2432 97.0895C25.2432 97.0895 26.5747 97.5801 27.1353 96.9494C27.6958 96.3187 28.747 94.9172 28.9572 91.1332C29.1674 87.3492 29.2375 86.158 30.2185 85.3171C31.1996 84.4762 32.0404 83.7754 32.0404 83.7754L34.4393 74.3814Z" fill="url(#paint2_linear)"/>
<path opacity="0.4" d="M33.2135 78.8561C33.2135 78.8561 32.1185 80.0524 29.8575 81.9979C26.7871 84.6399 27.3583 91.6375 26.6443 93.7082C25.9303 95.779 24.645 95.6362 24.645 95.6362L23.5739 91.8517C23.5739 91.8517 24.2165 95.6362 22.36 96.9214C20.5035 98.2067 18.8612 97.2071 18.8612 97.2071L17.2189 94.0653C17.2189 94.0653 18.8612 97.7783 16.0764 98.2781C13.2916 98.778 12.3634 90.3522 12.3634 90.3522C12.3634 90.3522 12.649 93.8511 10.7925 94.3509C8.93595 94.8507 8.43611 94.3509 8.43611 94.3509C8.43611 94.3509 8.2219 96.493 10.2212 96.6358C12.2206 96.7786 12.5776 97.3499 12.7918 97.2785C13.006 97.2071 13.7764 99.994 15.7833 100.243C17.7901 100.492 20.1465 99.135 20.1465 99.135C20.1465 99.135 22.3086 100.193 24.2622 98.7713C26.2159 97.3499 25.5018 97.3499 25.5018 97.3499C25.5018 97.3499 26.9299 97.7069 28.001 95.4934C29.0721 93.2798 28.4294 88.2815 30.0717 86.0679C31.714 83.8544 31.9996 83.9972 31.9996 83.9972L33.2135 78.8561Z" fill="url(#paint3_linear)"/>
<path d="M58.8833 18.4716C58.8833 18.4716 58.9605 14.0512 53.9668 13.3528C48.9731 12.6544 45.7081 13.3626 43.8057 18.3231C41.9033 23.2835 46.8837 27.0722 46.8837 27.0722C46.8837 27.0722 50.6536 22.846 53.409 21.185C56.8465 19.1128 58.8833 18.4716 58.8833 18.4716Z" fill="url(#paint4_linear)"/>
<path d="M111.461 91.5661C111.461 91.5661 110.2 92.6134 108.605 92.5658C107.01 92.5182 105.82 91.3995 106.677 89.1146C107.534 86.8296 109.319 85.2111 110.628 85.0445C111.937 84.8779 115.127 85.8299 115.103 88.0673C115.079 90.3046 114.246 91.2805 111.461 91.5661Z" fill="url(#paint5_linear)"/>
<path d="M104.558 100.587C104.558 100.587 103.13 101.801 102.464 100.611C101.797 99.4206 102.392 96.9453 102.94 96.1598C103.487 95.3744 104.201 94.5651 104.582 94.4461C104.963 94.3271 105.344 93.9463 105.677 95.0173C106.01 96.0884 106.034 99.373 104.558 100.587Z" fill="url(#paint6_linear)"/>
<path d="M106.915 101.801C106.915 101.801 107.891 99.016 109.271 97.8974C110.652 96.7787 111.009 96.8263 111.461 97.7783C111.913 98.7304 110.842 103.681 110.485 104.276C110.128 104.871 108.605 108.108 107.51 107.727C106.415 107.347 105.772 104.157 106.915 101.801Z" fill="url(#paint7_linear)"/>
<path d="M111.937 103.61C111.937 103.61 112.413 99.9681 113.579 98.8256C114.746 97.6831 115.127 97.6355 115.46 98.0163C115.793 98.3972 116.269 100.658 115.626 102.467C114.984 104.276 114.056 106.085 113.46 106.49C112.865 106.894 112.389 106.847 112.151 105.918C111.913 104.99 111.866 104.014 111.937 103.61Z" fill="url(#paint8_linear)"/>
<path d="M116.459 97.3976C116.459 97.3976 116.721 94.5176 117.435 93.8987C118.149 93.2799 118.625 92.9229 119.078 94.232C119.53 95.541 119.006 99.6111 117.911 100.801C116.816 101.991 115.983 102.396 115.983 102.396L116.459 97.3976Z" fill="url(#paint9_linear)"/>
<path d="M14.6601 81.5457C14.6601 81.5457 14.0412 83.307 15.0885 84.1639C16.1358 85.0207 16.945 84.9731 16.945 84.9731L17.6591 85.0207C17.6591 85.0207 19.0396 86.8296 20.5153 86.8296C21.991 86.8296 23.181 86.4488 23.2762 84.1639C23.3715 81.8789 21.8005 80.4984 20.1344 80.1652C18.4683 79.832 15.4217 79.4035 14.6601 81.5457Z" fill="url(#paint10_linear)"/>
<path d="M17.1593 92.3635C17.1593 92.3635 17.5878 90.5426 19.1944 91.0068C20.801 91.4709 22.7289 94.4342 22.4076 97.3618C22.0863 100.289 20.9081 99.4325 20.6225 99.4325C20.3368 99.4325 16.8023 96.1122 17.1593 92.3635Z" fill="url(#paint11_linear)"/>
<path d="M24.6212 96.612C24.6212 96.612 25.2995 97.2903 25.6923 96.3263C26.085 95.3624 26.3706 92.7561 25.5137 91.3637C24.6569 89.9713 23.5858 90.1498 23.3002 91.328C23.0146 92.5062 23.3359 95.5409 24.6212 96.612Z" fill="url(#paint12_linear)"/>
<path d="M12.2324 90.5427C12.2324 90.5427 12.8394 88.3648 14.089 89.2931C15.3385 90.2214 16.3025 93.6131 16.3739 95.6481C16.4453 97.6831 15.9455 99.9681 14.7316 99.504C13.5177 99.0398 10.9829 93.5417 12.2324 90.5427Z" fill="url(#paint13_linear)"/>
<path d="M7.94801 88.7219C7.94801 88.7219 8.23363 85.1874 10.1258 85.6515C12.0181 86.1156 10.6257 93.8987 10.5186 94.113C10.4115 94.3272 8.87627 96.9334 8.19792 94.9341C7.51958 92.9348 7.51958 90.5427 7.94801 88.7219Z" fill="url(#paint14_linear)"/>
<path d="M29.097 61.6734C29.0374 61.6734 28.9771 61.6568 28.9233 61.6222C28.7739 61.526 28.7307 61.3271 28.8268 61.1777C28.8465 61.1469 30.8378 58.0284 33.8721 51.2235C35.1052 48.459 35.6752 46.5889 36.2266 44.7805C37.029 42.1481 37.7872 39.6617 40.5216 34.9361C42.8075 30.9854 45.0757 29.2585 45.171 29.1869C45.3133 29.0807 45.5146 29.1092 45.6211 29.2511C45.7277 29.393 45.6993 29.5946 45.5572 29.7013C45.5348 29.7181 43.2926 31.4314 41.0782 35.2584C38.3809 39.9199 37.6678 42.2592 36.8419 44.9681C36.2848 46.7952 35.7088 48.6846 34.4595 51.4854C31.4018 58.3426 29.3876 61.4949 29.3676 61.5259C29.3062 61.6213 29.2027 61.6734 29.097 61.6734Z" fill="#2D2D2D"/>
<path d="M33.6443 59.338C33.2349 59.484 32.8239 59.6678 32.4238 59.8575C32.0218 60.0472 31.6216 60.2414 31.2311 60.4551C30.4494 60.8795 29.6725 61.3151 28.9274 61.8037C27.422 62.7555 25.9966 63.8338 24.6404 64.9909C23.2877 66.1537 21.9806 67.3773 20.767 68.6813C20.155 69.3311 19.5843 70.0107 18.9703 70.6853C18.6572 71.0172 18.334 71.3579 17.9402 71.6357C17.5508 71.9154 17.1183 72.1307 16.6794 72.2946C15.7993 72.6035 14.9099 72.8036 13.9952 72.9208C13.0834 73.036 12.1663 73.0445 11.2719 73.0486C10.3746 73.0513 9.50021 73.0805 8.62651 73.2047C7.75975 73.3258 6.87885 73.4929 6.17412 73.8927C5.82596 74.0931 5.5558 74.3682 5.44042 74.7052C5.31605 75.0411 5.36164 75.4436 5.46825 75.8328L5.55765 76.1271L5.68501 76.4168C5.76705 76.6142 5.85965 76.7936 5.97456 76.9615C6.19977 77.2995 6.48954 77.5935 6.82762 77.83C7.50795 78.3024 8.34417 78.5592 9.19647 78.6799C10.0473 78.7987 10.9437 78.7994 11.7866 78.6926L11.8033 78.6905C11.9795 78.6681 12.1404 78.7929 12.1627 78.969C12.185 79.1452 12.0606 79.306 11.8844 79.3283C10.9475 79.448 10.0327 79.4458 9.10567 79.3206C8.18749 79.1905 7.25641 78.917 6.45421 78.3633C6.05642 78.0863 5.7037 77.7321 5.43121 77.3236C5.29261 77.1214 5.17841 76.8998 5.08793 76.6834L4.94481 76.3567L4.83709 76.0076C4.71042 75.5425 4.63529 75.0086 4.82096 74.4867C5.00007 73.9639 5.41724 73.5725 5.84342 73.3317C6.71386 72.8493 7.64174 72.6991 8.54244 72.5725C9.44775 72.4481 10.3718 72.4222 11.2687 72.4244C12.1682 72.4249 13.0503 72.4202 13.9213 72.3145C14.7867 72.2094 15.6595 72.0154 16.474 71.7338C16.8764 71.5852 17.2532 71.3986 17.5949 71.1567C17.9384 70.9185 18.24 70.6059 18.5428 70.2877C19.1404 69.638 19.7285 68.9457 20.3506 68.2917C21.5896 66.9739 22.9139 65.7467 24.2885 64.5769C25.6692 63.4132 27.1163 62.3223 28.6549 61.3698C29.4241 60.8945 30.2146 60.451 31.0307 60.0587C31.8483 59.6661 32.6802 59.3158 33.5662 59.0676C33.641 59.0466 33.7186 59.0903 33.7396 59.1651C33.7596 59.2365 33.7206 59.3106 33.6518 59.3353L33.6443 59.338Z" fill="#2D2D2D"/>
<path d="M13.539 77.6748C13.1842 77.9838 12.8389 78.3533 12.5282 78.7313C12.2102 79.1078 11.9159 79.5052 11.6426 79.9164C11.0892 80.7344 10.6093 81.6028 10.2009 82.5044C9.36792 84.3045 8.83403 86.2289 8.48362 88.1917C8.31119 89.1715 8.17624 90.1576 8.13701 91.1402C8.1039 92.1181 8.15035 93.1102 8.44602 94.0039C8.59234 94.4493 8.80681 94.8616 9.09925 95.2063C9.38877 95.5543 9.76145 95.8263 10.1846 96.0604C10.6004 96.2964 11.0392 96.4874 11.4918 96.5994C11.7179 96.6551 11.947 96.689 12.1737 96.6999C12.2871 96.7063 12.3997 96.7034 12.5094 96.6945C12.6125 96.6867 12.7402 96.6645 12.8023 96.6462L12.8312 96.6378C13.0014 96.5878 13.1798 96.6852 13.2298 96.8554C13.2792 97.0236 13.1842 97.2 13.0177 97.2523C12.8389 97.3084 12.716 97.3226 12.5689 97.3392C12.4279 97.3524 12.2881 97.3569 12.1501 97.3511C11.8737 97.3411 11.6022 97.3031 11.3385 97.2413C10.8112 97.117 10.316 96.9062 9.85398 96.6509C9.39507 96.4043 8.93247 96.0814 8.57152 95.6564C8.20692 95.2352 7.95281 94.7345 7.78365 94.225C7.44493 93.1984 7.40291 92.1414 7.43392 91.1138C7.4707 90.0825 7.61313 89.0678 7.79845 88.0662C8.16787 86.0683 8.73093 84.0818 9.6041 82.227C10.0398 81.3 10.5593 80.4099 11.1619 79.5782C11.778 78.7535 12.4493 77.9778 13.3088 77.3559C13.3966 77.2924 13.5193 77.3121 13.5828 77.3999C13.6427 77.4826 13.6286 77.5963 13.5533 77.6623L13.539 77.6748Z" fill="#2D2D2D"/>
<path d="M12.7328 86.5257C12.5335 88.1033 12.3767 89.6837 12.3651 91.2622C12.3652 92.052 12.423 92.8387 12.5187 93.6188C12.64 94.3937 12.7763 95.1694 13.0204 95.9116C13.1207 96.2906 13.2766 96.646 13.4066 97.0122C13.4794 97.1913 13.5683 97.3612 13.648 97.5364C13.7235 97.7148 13.8224 97.8766 13.9206 98.0388C14.305 98.6906 14.8107 99.2599 15.4391 99.6018C15.7584 99.7585 16.0966 99.8742 16.4551 99.9176C16.8138 99.9588 17.1828 99.9424 17.5594 99.8855C17.7457 99.859 17.9435 99.8191 18.1434 99.7829C18.3187 99.7519 18.4901 99.702 18.656 99.6371C18.8215 99.5714 18.9822 99.4911 19.1327 99.3947C19.2787 99.3028 19.4351 99.1784 19.5332 99.0758L19.5501 99.0581C19.6727 98.9299 19.8761 98.9253 20.0043 99.0479C20.1299 99.168 20.1365 99.3659 20.0215 99.4944C19.8479 99.6882 19.6868 99.815 19.4993 99.9462C19.3151 100.072 19.1189 100.18 18.9123 100.266C18.7059 100.351 18.491 100.418 18.2712 100.461C18.0766 100.5 17.8811 100.544 17.6703 100.578C17.2543 100.65 16.815 100.681 16.3738 100.638C15.9306 100.595 15.4978 100.451 15.0975 100.254C14.3041 99.829 13.7118 99.1476 13.2797 98.4252C13.1689 98.2441 13.0585 98.0628 12.9753 97.871C12.8873 97.6813 12.7895 97.4943 12.7102 97.302C12.5661 96.9132 12.4038 96.5284 12.3023 96.1282C12.0525 95.3391 11.9167 94.5242 11.7986 93.7121C11.7063 92.8964 11.6549 92.0776 11.6629 91.2598C11.6796 89.6265 11.869 87.9893 12.4334 86.4441C12.4628 86.3633 12.5522 86.3218 12.6329 86.3513C12.7024 86.3767 12.7429 86.4464 12.7339 86.5169L12.7328 86.5257Z" fill="#2D2D2D"/>
<path d="M17.6227 89.4439C17.4689 90.0952 17.4024 90.7975 17.4021 91.4806C17.4073 92.1671 17.4547 92.8549 17.6001 93.5257C17.855 94.873 18.4053 96.1553 19.1509 97.3072C19.5321 97.8674 19.9496 98.4073 20.4695 98.7964C20.9831 99.1933 21.6 99.3894 22.2161 99.3434C22.8334 99.2931 23.4375 98.9999 23.9496 98.5948C24.4245 98.2272 24.7479 97.5909 24.9859 96.9843L24.9921 96.9683C25.057 96.8031 25.2435 96.7217 25.4087 96.7865C25.5711 96.8502 25.6523 97.0317 25.5937 97.1947C25.4629 97.5576 25.3116 97.8855 25.1201 98.2151C25.0251 98.3786 24.9187 98.5386 24.7946 98.6926C24.7348 98.7703 24.6652 98.8446 24.5942 98.9179C24.5175 98.9929 24.4431 99.0587 24.3727 99.1159C23.7892 99.5931 23.0718 99.9619 22.2725 100.027C21.4751 100.094 20.663 99.8185 20.0585 99.3477C19.4382 98.8861 18.99 98.2806 18.5845 97.6733C17.8096 96.4466 17.2304 95.0774 16.9835 93.6392C16.857 92.922 16.809 92.19 16.8522 91.4641C16.8942 90.7357 17.0057 90.0224 17.2603 89.3188C17.2963 89.2194 17.406 89.168 17.5053 89.204C17.5977 89.2374 17.6486 89.3345 17.6265 89.4279L17.6227 89.4439Z" fill="#2D2D2D"/>
<path d="M23.9558 89.4526C23.7464 90.4367 23.6321 91.4536 23.6359 92.4478C23.6447 93.443 23.7838 94.431 24.1756 95.322C24.3681 95.7652 24.6149 96.1823 24.9365 96.4941C25.253 96.8085 25.655 96.9983 26.0479 96.9717C26.2426 96.9606 26.4338 96.8978 26.5866 96.7927C26.7211 96.7044 26.8875 96.5013 27.0233 96.3173C27.3042 95.9364 27.5248 95.495 27.7104 95.041C28.0773 94.1266 28.2999 93.1418 28.4302 92.144C28.4979 91.6447 28.536 91.1416 28.5658 90.6349C28.5942 90.1179 28.6217 89.6006 28.6696 89.079C28.7137 88.5587 28.7767 88.0324 28.8936 87.5061C29.0083 86.9814 29.1812 86.4499 29.4554 85.963C29.7272 85.4751 30.0911 85.0473 30.4866 84.6813C30.8849 84.3171 31.3095 84.0013 31.7385 83.6992C31.8837 83.5969 32.0843 83.6317 32.1866 83.7769C32.2879 83.9207 32.2547 84.1189 32.113 84.222L32.1086 84.2252C31.2935 84.8181 30.5058 85.4587 30.0646 86.2981C29.6157 87.1327 29.4912 88.1361 29.4012 89.1431C29.3568 89.6477 29.3315 90.1596 29.3055 90.6713C29.277 91.1932 29.2392 91.7181 29.1705 92.2401C29.0348 93.2832 28.8172 94.3294 28.4039 95.325C28.1963 95.8213 27.9509 96.3085 27.6172 96.7559C27.4423 96.9789 27.2894 97.1935 26.998 97.399C26.7241 97.5834 26.4064 97.6814 26.0874 97.6978C25.4389 97.7355 24.8402 97.416 24.4359 97.0061C24.0198 96.5939 23.7423 96.1001 23.5279 95.6005C23.095 94.5965 22.9434 93.4963 22.989 92.4365C23.0359 91.3712 23.2512 90.3332 23.644 89.3476C23.6776 89.2631 23.7734 89.222 23.8578 89.2556C23.9334 89.2858 23.9744 89.3657 23.9579 89.4427L23.9558 89.4526Z" fill="#2D2D2D"/>
<path fill-rule="evenodd" clip-rule="evenodd" d="M32.7167 102.667C32.2151 100.204 31.9168 97.6995 31.7564 95.1887C31.377 89.913 32.0798 84.6163 33.2734 79.4631C33.8711 76.8827 34.5832 74.3274 35.3652 71.7917C35.7545 70.5245 36.1533 69.2535 36.5835 68.008C36.7191 67.6045 36.8692 67.2053 37.0192 66.8062C37.1019 66.5861 37.1847 66.366 37.265 66.1451L37.997 64.2986C39.0011 61.846 40.104 59.4308 41.2583 57.0404C42.4141 54.6512 43.624 52.2839 44.8902 49.9528L44.8914 49.9506C44.941 49.8591 44.9081 49.7443 44.8171 49.6932C44.7251 49.6416 44.6088 49.6742 44.5572 49.7661C43.2523 52.0895 42.0083 54.4412 40.8148 56.822C39.6233 59.2031 38.482 61.6112 37.4366 64.0654C37.1788 64.6804 36.9257 65.298 36.6789 65.918C36.5971 66.1396 36.5131 66.3603 36.429 66.581C36.2753 66.9844 36.1216 67.3878 35.982 67.7971C35.536 69.0618 35.1425 70.3292 34.7502 71.6031C33.9654 74.1483 33.2489 76.7183 32.6466 79.3184C32.04 81.9169 31.5697 84.552 31.2865 87.2118C30.9924 89.8688 30.9333 92.5612 31.1145 95.229C31.2576 97.4704 31.5096 99.7083 31.9169 101.92C32.1806 102.172 32.4472 102.421 32.7167 102.667Z" fill="#2D2D2D"/>
<path d="M17.57 83.8317C17.6088 84.3144 17.8328 84.8217 18.1583 85.2101C18.4787 85.6132 18.9123 85.9234 19.3821 86.1637C19.8539 86.4063 20.3625 86.5772 20.8711 86.5998C21.3783 86.6284 21.8788 86.482 22.2668 86.1731C22.6557 85.8669 22.9303 85.4103 23.0403 84.923C23.0927 84.6867 23.1057 84.411 23.1086 84.1481C23.1089 83.883 23.0883 83.6185 23.046 83.3588C22.9617 82.8397 22.7827 82.3395 22.4996 81.9068C22.2205 81.4708 21.8318 81.1138 21.3873 80.8405C20.4864 80.2982 19.3923 80.1028 18.3149 80.0607C17.7753 80.0407 17.2353 80.0683 16.7235 80.1823C16.2138 80.2937 15.7287 80.5045 15.3788 80.8505C14.659 81.5342 14.6315 82.7551 15.0244 83.67C15.049 83.7251 15.0772 83.7762 15.1035 83.8166C15.1373 83.8644 15.1772 83.921 15.2164 83.9696C15.295 84.0708 15.3803 84.1641 15.4705 84.2508C15.6509 84.4242 15.8594 84.5592 16.0864 84.6552C16.542 84.8499 17.0719 84.861 17.5909 84.788L17.5947 84.7874C17.7323 84.7681 17.8596 84.864 17.879 85.0016C17.8983 85.1393 17.8033 85.2664 17.6657 85.2858C17.091 85.3687 16.4667 85.3671 15.8901 85.1257C15.6049 85.007 15.3393 84.8347 15.1182 84.6237C15.0075 84.5183 14.9048 84.4061 14.8123 84.2883C14.7644 84.2288 14.7237 84.1719 14.6773 84.1064C14.6271 84.0308 14.5892 83.9592 14.5564 83.8878C14.3081 83.3228 14.2181 82.7322 14.2635 82.1271C14.3075 81.5272 14.5593 80.9097 15.0106 80.4758C15.4578 80.0374 16.0403 79.7975 16.6096 79.6736C17.1841 79.5475 17.764 79.5218 18.3338 79.5439C19.4642 79.5926 20.6351 79.7933 21.6525 80.406C22.1536 80.7147 22.6027 81.1286 22.9231 81.6317C23.2481 82.1311 23.4483 82.7014 23.5404 83.2784C23.5868 83.5674 23.6086 83.8588 23.6075 84.1495C23.6025 84.4414 23.592 84.7248 23.525 85.0321C23.3885 85.6271 23.0579 86.1774 22.5718 86.5602C22.0878 86.9465 21.4501 87.1252 20.8489 87.0881C20.2434 87.0586 19.6754 86.8601 19.1619 86.5955C18.644 86.3335 18.1544 85.9761 17.7935 85.4959C17.6084 85.2616 17.4635 84.9938 17.3623 84.7114C17.2606 84.4253 17.2037 84.139 17.2194 83.8128C17.2241 83.7164 17.306 83.6421 17.4023 83.6467C17.4911 83.651 17.5612 83.7208 17.568 83.8072L17.57 83.8317Z" fill="#2D2D2D"/>
<path d="M9.31526 95.5613C9.26637 95.5613 9.21734 95.5575 9.16832 95.5499C8.70116 95.4758 8.43023 95.076 8.40087 95.0307C8.32536 94.9138 8.35881 94.7581 8.47557 94.6824C8.59191 94.6071 8.74732 94.6401 8.82283 94.7559C8.82747 94.7627 8.99967 95.0151 9.24971 95.0531C9.39378 95.0746 9.55095 95.0186 9.71482 94.8854C10.3176 94.3957 10.7898 91.9371 10.7898 89.2879C10.7898 86.7619 10.3315 86.101 10.1346 85.9341C10.0397 85.8541 9.94041 85.8254 9.82147 85.8456C9.15234 85.957 8.67098 86.5426 8.53388 87.4119C8.51217 87.549 8.38353 87.6446 8.24602 87.6211C8.10864 87.5995 8.01496 87.4706 8.03654 87.3332C8.20669 86.2561 8.85888 85.4957 9.73872 85.3491C10.0031 85.3043 10.2527 85.3747 10.46 85.5501C11.0128 86.0185 11.2931 87.2762 11.2931 89.2879C11.2931 91.6787 10.8986 94.5724 10.0322 95.2759C9.79867 95.4657 9.55819 95.5613 9.31526 95.5613Z" fill="#2D2D2D"/>
<path d="M15.0867 99.6151C14.4075 99.6151 13.7828 98.973 13.7564 98.9454C13.6601 98.8455 13.6634 98.6865 13.7634 98.5901C13.8633 98.4937 14.0226 98.4967 14.1191 98.5964C14.2581 98.7403 14.7019 99.1117 15.0867 99.1117C15.0884 99.1117 15.0898 99.1117 15.0914 99.1117C15.243 99.1107 15.3727 99.0503 15.4882 98.9271C16.082 98.2935 16.3327 95.9073 15.9845 94.1987C15.5177 91.9084 14.5555 89.4924 13.6843 89.4924C13.6786 89.4924 13.6728 89.4924 13.667 89.4927C12.6776 89.5293 12.4664 90.1992 12.3671 91.6872C12.3579 91.8259 12.2397 91.9291 12.0992 91.9218C11.9606 91.9125 11.8555 91.7923 11.8648 91.6538C11.9382 90.5546 12.0387 89.0492 13.6484 88.9896C13.6605 88.9891 13.6727 88.9891 13.6847 88.9891C15.3517 88.9891 16.3029 93.2404 16.4777 94.0982C16.8341 95.8467 16.6435 98.4306 15.8553 99.2712C15.6431 99.4977 15.3866 99.6135 15.0933 99.6151C15.0911 99.6151 15.0889 99.6151 15.0867 99.6151Z" fill="#2D2D2D"/>
<path d="M21.1836 99.7003C20.8816 99.7003 20.6773 99.5512 20.6516 99.5315C20.5415 99.4466 20.5208 99.2887 20.6054 99.1784C20.6898 99.0694 20.8455 99.0476 20.9556 99.1303C20.9657 99.1371 21.0905 99.2218 21.2631 99.1896C21.4461 99.1549 21.6345 98.9951 21.8085 98.7275C22.3315 97.9232 22.1365 95.0279 21.4663 93.6492C20.71 92.0919 19.3166 90.8845 18.5415 91.1175C17.7793 91.3461 17.4824 91.8655 17.4824 92.9703C17.4824 93.1093 17.3696 93.2221 17.2306 93.2221C17.0916 93.2221 16.9788 93.1093 16.9788 92.9703C16.9788 92.081 17.1402 91.012 18.3968 90.6351C19.5649 90.2866 21.1339 91.8131 21.9191 93.4291C22.6229 94.8774 22.9111 97.9554 22.2307 99.0017C21.9721 99.3996 21.6728 99.6301 21.3404 99.6869C21.2858 99.6965 21.2333 99.7003 21.1836 99.7003Z" fill="#2D2D2D"/>
<path d="M101.811 64.85C101.705 64.85 101.602 64.7978 101.54 64.7022C99.0545 60.8358 97.7832 57.7944 96.8199 49.9923C95.9186 42.6921 94.7956 39.5654 93.0381 36.3492C91.595 33.7085 90.2223 33.2552 90.2086 33.2509C90.0401 33.1984 89.944 33.0196 89.9948 32.8508C90.0456 32.682 90.2209 32.5849 90.3908 32.634C90.4563 32.653 92.0134 33.1332 93.6023 36.0409C95.3981 39.3268 96.5443 42.5108 97.4584 49.9134C98.4061 57.5909 99.6504 60.5733 102.081 64.3544C102.177 64.5039 102.134 64.7028 101.985 64.7989C101.931 64.8336 101.871 64.85 101.811 64.85Z" fill="#2D2D2D"/>
<path d="M84.1606 22.3275C84.1606 22.3275 86.398 19.6141 90.5352 21.074C95.1336 22.6967 96.4966 26.7731 95.1466 29.7126C93.7966 32.6521 90.0358 33.7284 90.0358 33.7284C90.0358 33.7284 89.9063 26.717 85.1127 23.5176" fill="url(#paint15_linear)"/>
<path d="M25.0054 97.1519C24.6995 97.1519 24.4526 96.9559 24.3483 96.8291C24.2598 96.7218 24.2751 96.5631 24.3824 96.4749C24.4895 96.3864 24.6468 96.402 24.7353 96.5074C24.741 96.5137 24.8776 96.6707 25.036 96.6464C25.2064 96.6216 25.4025 96.3881 25.574 96.0054C26.1511 94.7185 25.7857 92.574 25.3946 91.835C25.0149 91.1181 24.5676 90.6546 24.2546 90.654C24.2543 90.654 24.2543 90.654 24.254 90.654C24.0771 90.654 23.9028 90.8127 23.7362 91.1252C23.6712 91.2478 23.5191 91.295 23.3959 91.2289C23.2733 91.1637 23.2266 91.0113 23.2921 90.8886C23.5527 90.399 23.8763 90.1507 24.254 90.1507C24.2543 90.1507 24.2549 90.1507 24.2551 90.1507C24.9669 90.1518 25.5532 91.0588 25.8395 91.5996C26.2551 92.3845 26.7003 94.724 26.0334 96.2113C25.7775 96.7824 25.4637 97.0968 25.1007 97.1457C25.0685 97.15 25.0365 97.1519 25.0054 97.1519Z" fill="#2D2D2D"/>
<path d="M85.8502 59.6241C86.4093 60.672 86.8316 61.7654 87.2362 62.8643L87.5483 63.6849L87.8527 64.5054C88.0592 65.0483 88.2851 65.5826 88.5078 66.131C88.7308 66.6782 88.9431 67.2435 89.1096 67.8206C89.2788 68.397 89.4114 68.9798 89.5253 69.5626C89.6427 70.1478 89.7227 70.7312 89.8403 71.2951C89.9533 71.8644 90.0863 72.4309 90.2295 72.9947C90.8059 75.2501 91.5839 77.4558 92.519 79.5901C93.4528 81.7243 94.5748 83.7774 95.7659 85.7896C96.362 86.7958 96.9843 87.7871 97.5977 88.7929C98.2038 89.8021 98.8139 90.8288 99.2649 91.9474C99.4993 92.5006 99.6763 93.0837 99.825 93.6627C99.9725 94.2381 100.092 94.8208 100.201 95.4037C100.422 96.5691 100.527 97.7465 100.844 98.8273C101.004 99.3674 101.232 99.8823 101.508 100.375C101.647 100.619 101.797 100.854 101.967 101.055C102.134 101.257 102.328 101.422 102.514 101.484C102.864 101.624 103.334 101.292 103.733 100.907C103.834 100.812 103.938 100.709 104.033 100.608C104.124 100.508 104.215 100.407 104.297 100.297C104.466 100.082 104.618 99.8486 104.75 99.6041C105.018 99.117 105.218 98.5887 105.349 98.0452C105.487 97.5029 105.551 96.9431 105.541 96.3873C105.53 95.8212 105.454 95.2997 105.229 94.7847C105.121 94.5269 104.979 94.2215 104.956 93.878C104.924 93.5377 105.011 93.2199 105.121 92.9366C105.152 92.8577 105.241 92.8186 105.319 92.8492C105.389 92.876 105.427 92.9475 105.415 93.0179L105.415 93.0205C105.367 93.3 105.349 93.5738 105.402 93.8175C105.447 94.0621 105.587 94.2867 105.72 94.5606C105.855 94.8308 105.982 95.1321 106.05 95.442C106.116 95.754 106.155 96.0589 106.165 96.368C106.198 96.9856 106.122 97.6023 105.98 98.1992C105.836 98.7967 105.615 99.3744 105.316 99.9155C105.168 100.187 104.999 100.448 104.805 100.694C104.711 100.818 104.606 100.936 104.498 101.052C104.392 101.164 104.288 101.268 104.175 101.374C103.951 101.584 103.714 101.793 103.412 101.959C103.261 102.041 103.089 102.111 102.897 102.141C102.706 102.173 102.495 102.158 102.31 102.094C101.937 101.963 101.682 101.713 101.475 101.469C101.266 101.221 101.101 100.958 100.949 100.693C100.651 100.162 100.401 99.5975 100.227 99.0116C99.8852 97.834 99.7867 96.6577 99.5677 95.5192C99.4619 94.9483 99.3451 94.3807 99.2011 93.8191C99.0575 93.262 98.8931 92.7188 98.6693 92.1905C98.2423 91.1289 97.6493 90.1275 97.048 89.1269C96.4392 88.1286 95.8133 87.1316 95.2129 86.1181C94.0134 84.0918 92.8789 82.0168 91.93 79.8486C90.9815 77.6835 90.1925 75.4472 89.6061 73.1535C89.4605 72.5798 89.3251 72.0033 89.2096 71.4212C89.0904 70.8354 89.0049 70.2558 88.8834 69.6916C88.6536 68.5507 88.3291 67.4617 87.8645 66.396C87.4051 65.3222 86.9535 64.2112 86.5823 63.101C86.1888 61.9924 85.8347 60.8704 85.6366 59.6964C85.6261 59.6342 85.668 59.5753 85.7302 59.5648C85.7798 59.5564 85.8277 59.582 85.8502 59.6241Z" fill="#2D2D2D"/>
<path d="M103.366 101.706C103.558 102.561 103.849 103.433 104.228 104.235C104.605 105.043 105.091 105.793 105.694 106.41C105.839 106.57 106.012 106.698 106.17 106.841C106.343 106.952 106.508 107.095 106.689 107.169C107.043 107.353 107.406 107.417 107.734 107.31C108.066 107.208 108.376 106.944 108.642 106.622C108.909 106.297 109.146 105.922 109.371 105.533L109.709 104.935L109.793 104.784L109.861 104.645C109.908 104.556 109.952 104.46 109.991 104.356C110.159 103.956 110.286 103.519 110.414 103.088C110.657 102.216 110.85 101.324 111.011 100.427C111.168 99.5288 111.288 98.625 111.394 97.7219C111.491 96.8181 111.578 95.9141 111.571 95.0065L111.57 95.0017C111.57 94.921 111.635 94.855 111.715 94.8543C111.785 94.8536 111.844 94.9024 111.859 94.968C112.069 95.893 112.093 96.8413 112.053 97.7735C112.014 98.7082 111.891 99.6337 111.737 100.552C111.581 101.471 111.391 102.384 111.147 103.291C111.017 103.744 110.891 104.195 110.706 104.648C110.665 104.76 110.614 104.874 110.555 104.99C110.499 105.108 110.443 105.219 110.389 105.314L110.052 105.922C109.819 106.331 109.57 106.744 109.246 107.128C108.926 107.506 108.517 107.883 107.961 108.055C107.827 108.107 107.682 108.119 107.538 108.133C107.392 108.158 107.253 108.126 107.11 108.115C106.965 108.109 106.842 108.05 106.709 108.015C106.572 107.98 106.46 107.915 106.342 107.856C106.097 107.747 105.909 107.584 105.698 107.443C105.514 107.278 105.316 107.125 105.152 106.944C104.465 106.24 103.963 105.402 103.577 104.534C103.188 103.661 102.907 102.767 102.732 101.817C102.7 101.642 102.815 101.474 102.99 101.442C103.16 101.411 103.324 101.52 103.362 101.687L103.366 101.706Z" fill="#2D2D2D"/>
<path d="M109.377 106.423C110.01 106.683 110.728 106.85 111.407 106.868C112.086 106.868 112.751 106.704 113.219 106.271C113.276 106.217 113.34 106.169 113.394 106.11L113.542 105.92C113.644 105.806 113.739 105.636 113.837 105.487C114.029 105.181 114.204 104.865 114.373 104.545C114.7 103.901 114.981 103.233 115.213 102.548C115.677 101.174 115.926 99.7273 116.029 98.2669C116.084 97.5375 116.109 96.8076 116.099 96.0783C116.085 95.3526 116.047 94.612 115.908 93.9081L115.905 93.8942C115.893 93.833 115.932 93.7736 115.994 93.7615C116.045 93.7512 116.096 93.7783 116.118 93.8241C116.453 94.5331 116.594 95.2849 116.684 96.0401C116.769 96.7959 116.781 97.557 116.739 98.3123C116.653 99.8199 116.414 101.333 115.945 102.788C115.713 103.516 115.42 104.226 115.063 104.904C114.882 105.241 114.694 105.574 114.488 105.896C114.38 106.058 114.294 106.215 114.151 106.383L113.953 106.629C113.881 106.707 113.796 106.774 113.718 106.846C113.566 106.998 113.376 107.099 113.195 107.212C113.105 107.271 113.001 107.3 112.905 107.344C112.807 107.384 112.71 107.431 112.607 107.45C112.203 107.573 111.789 107.592 111.387 107.587C110.579 107.54 109.827 107.346 109.1 107.003C108.939 106.928 108.871 106.736 108.946 106.576C109.019 106.42 109.201 106.351 109.359 106.415L109.377 106.423Z" fill="#2D2D2D"/>
<path d="M115.613 102.121C115.761 102.096 115.961 102.02 116.132 101.948L116.391 101.817L116.639 101.664C116.721 101.611 116.795 101.546 116.874 101.488C116.954 101.432 117.027 101.367 117.097 101.297L117.31 101.093L117.5 100.864C118.001 100.248 118.33 99.4937 118.541 98.7095C118.962 97.1288 118.951 95.4383 118.734 93.7749C118.625 92.9443 118.512 92.1174 118.389 91.2901C118.261 90.4638 118.092 89.6431 117.884 88.8313C117.487 87.2013 116.923 85.6126 116.354 84.0136C116.329 83.9427 116.366 83.8648 116.436 83.8396C116.503 83.816 116.576 83.8487 116.606 83.9109C117.329 85.4437 117.999 87.02 118.497 88.6617C118.745 89.4821 118.953 90.3159 119.121 91.1582C119.211 91.5782 119.278 92.0027 119.342 92.4275C119.392 92.8541 119.431 93.282 119.45 93.7108C119.475 94.1392 119.486 94.5676 119.504 94.9954C119.517 95.4243 119.511 95.8592 119.515 96.2908C119.511 96.5071 119.486 96.7239 119.472 96.9405C119.45 97.1568 119.452 97.3743 119.409 97.5895L119.302 98.2362C119.275 98.4529 119.198 98.6625 119.148 98.8759C118.917 99.7213 118.554 100.555 117.981 101.255L117.764 101.515L117.521 101.753C117.441 101.834 117.357 101.91 117.265 101.978C117.174 102.046 117.088 102.121 116.993 102.185L116.702 102.368L116.395 102.527C116.176 102.619 115.982 102.705 115.711 102.756C115.536 102.79 115.368 102.675 115.335 102.5C115.302 102.326 115.417 102.158 115.591 102.124C115.593 102.124 115.594 102.124 115.596 102.124L115.613 102.121Z" fill="#2D2D2D"/>
<path d="M119.577 88.6447C118.734 88.6447 118.077 88.4664 118.029 88.453C117.858 88.4055 117.758 88.2285 117.805 88.0573C117.852 87.8863 118.03 87.7863 118.201 87.8333C118.348 87.8743 121.824 88.799 122.617 85.9322C123.03 84.438 122.855 83.2303 122.15 82.7012C121.855 82.4803 121.68 82.5002 121.361 82.5368C121.039 82.574 120.638 82.6199 120.045 82.4221C118.873 82.0313 117.468 81.0972 116.513 80.4287C115.607 79.795 113.713 78.8187 113.694 78.8088C113.536 78.7277 113.474 78.5338 113.555 78.3757C113.637 78.2178 113.829 78.1553 113.988 78.2369C114.068 78.2776 115.94 79.2428 116.882 79.9016C117.413 80.2735 119.03 81.4056 120.249 81.812C120.707 81.9647 121.003 81.9308 121.288 81.8977C121.656 81.8565 122.036 81.8117 122.536 82.1867C123.474 82.8908 123.73 84.3183 123.237 86.1037C122.981 87.0301 122.467 87.7167 121.711 88.1444C121.022 88.5341 120.242 88.6447 119.577 88.6447Z" fill="#2D2D2D"/>
<path d="M114.841 80.948C114.115 79.9973 113.604 78.9372 112.987 77.9332C112.379 76.9249 111.753 75.9284 111.092 74.9575C109.778 73.0063 108.334 71.1613 106.644 69.5313C104.966 67.8814 103.179 66.3429 101.356 64.8421L98.6128 62.5838C98.3835 62.3926 98.1601 62.1961 97.9371 61.9904C97.7169 61.7896 97.4955 61.556 97.3037 61.3326C97.1078 61.1041 96.9189 60.8684 96.7436 60.6199C96.6569 60.4949 96.5751 60.3657 96.4977 60.2323C96.4195 60.0932 96.3479 59.9757 96.2993 59.7865C96.2867 59.7372 96.3163 59.687 96.3656 59.6744C96.4041 59.6645 96.4432 59.6805 96.4645 59.7115L96.4841 59.7403C96.5436 59.8275 96.6497 59.952 96.7427 60.0531C96.84 60.1588 96.9447 60.2599 97.0498 60.3605C97.258 60.5633 97.4732 60.761 97.689 60.9581C98.1157 61.3515 98.5694 61.6961 99.0349 62.0647C99.9601 62.7945 100.911 63.5062 101.836 64.2522C103.693 65.7347 105.484 67.3112 107.184 68.9835C108.903 70.6497 110.413 72.5415 111.738 74.5224C112.402 75.5144 113.031 76.5291 113.612 77.5698C114.184 78.6142 114.807 79.6357 115.129 80.8101C115.152 80.8966 115.101 80.9858 115.015 81.0094C114.949 81.0273 114.882 81.0023 114.843 80.9515L114.841 80.948Z" fill="#2D2D2D"/>
<path d="M46.5617 27.2402C46.4937 27.2402 46.4254 27.2188 46.367 27.1746C43.8399 25.2494 43.2884 23.5588 43.1549 21.1127C43.0585 19.3504 43.6536 16.7972 45.6124 14.9163C47.3251 13.2717 49.7315 12.5463 52.5675 12.8165C58.4831 13.3811 59.149 18.2405 59.155 18.2895C59.1765 18.4658 59.0512 18.6264 58.875 18.6481C58.6953 18.6712 58.5385 18.5445 58.5164 18.3686C58.4932 18.1864 57.8932 13.971 52.5063 13.4569C49.862 13.2044 47.6315 13.8693 46.0578 15.3803C44.2542 17.1122 43.7129 19.5319 43.7972 21.0776C43.9229 23.3825 44.415 24.8792 46.757 26.6628C46.8982 26.7705 46.9255 26.9722 46.8179 27.1135C46.7545 27.1966 46.6587 27.2402 46.5617 27.2402Z" fill="#2D2D2D"/>
<path fill-rule="evenodd" clip-rule="evenodd" d="M100.482 97.7337C99.9497 95.3601 98.5775 90.4678 95.6687 86.5202C94.7054 85.2128 90.956 76.595 90.956 76.595L86.3147 61.7428C86.3147 61.7428 87.4096 72.8819 89.5993 82.0217C90.5435 85.9628 91.8285 88.5895 93.0306 91.0468C94.5793 94.2126 95.9905 97.0973 96.3582 102.149C97.825 100.768 99.2026 99.2927 100.482 97.7337Z" fill="black" fill-opacity="0.1"/>
<path d="M65.7369 54.8915C66.2131 54.2202 66.7985 53.6458 67.4682 53.1711C67.8044 52.9366 68.1589 52.7243 68.519 52.5214C68.8807 52.3215 69.2577 52.1397 69.6732 52.0166C69.8814 51.9559 70.0995 51.9076 70.3361 51.9007C70.5696 51.8948 70.836 51.9313 71.0727 52.0797C71.3116 52.2245 71.4708 52.47 71.5493 52.699C71.6314 52.9319 71.6601 53.1613 71.6641 53.3815C71.6637 53.6082 71.6515 53.7963 71.6354 54.0022C71.6205 54.2044 71.6013 54.4065 71.5708 54.6086C71.5023 55.0133 71.4307 55.4126 71.191 55.804C71.1681 55.8415 71.1192 55.8532 71.0818 55.8303C71.0573 55.8154 71.0438 55.7893 71.0438 55.7626L71.0438 55.7333L71.046 54.5652C71.0503 54.1783 71.0674 53.7624 71.0653 53.3955C71.0597 53.037 70.9664 52.7028 70.757 52.5786C70.5515 52.435 70.1753 52.4586 69.8275 52.5555C69.1168 52.7647 68.4262 53.1703 67.8176 53.6501C67.1976 54.122 66.5742 54.6044 65.9301 55.0749L65.9259 55.0779C65.8659 55.1217 65.7818 55.1086 65.738 55.0487C65.703 55.0008 65.7045 54.9374 65.7369 54.8915Z" fill="#757582"/>
<path d="M70.7414 52.2933C70.6857 52.2933 70.6295 52.2762 70.5811 52.241C70.459 52.1522 70.432 51.9814 70.5208 51.8593C71.1454 51.0007 71.1902 50.3139 71.1904 50.3071C71.1992 50.1565 71.3303 50.0446 71.4783 50.0494C71.6291 50.0577 71.7443 50.1866 71.7361 50.3374C71.7342 50.3718 71.6809 51.1932 70.9627 52.1808C70.9091 52.2543 70.8258 52.2933 70.7414 52.2933Z" fill="#757582"/>
<path d="M69.8335 44.8005C69.6222 44.8923 69.4939 45.8758 69.5505 46.6964C69.6011 47.4304 69.7475 49.5888 71.4181 50.658C72.1255 51.1107 74.2141 49.3215 75.139 48.3365C75.3555 48.106 75.9521 47.0001 75.4929 46.6115C75.125 46.3002 74.5686 46.4621 73.7831 46.8191C73.0846 47.1366 72.8468 47.476 72.593 47.6046C72.5326 47.6353 72.3802 46.4983 71.3898 45.4796C71.0101 45.089 70.4843 44.5175 69.8335 44.8005Z" fill="url(#paint16_linear)"/>
<path d="M112.03 90.9689C111.674 91.4299 111.251 91.814 110.766 92.1336C110.283 92.4495 109.732 92.6865 109.143 92.7757C108.557 92.8538 107.946 92.824 107.371 92.5582C107.086 92.4262 106.83 92.2154 106.636 91.9629C106.448 91.7059 106.319 91.4122 106.253 91.1141C106.116 90.5152 106.168 89.9135 106.299 89.3463C106.427 88.7819 106.671 88.2241 106.969 87.7433C107.556 86.771 108.31 85.8552 109.337 85.2639C109.847 84.9724 110.43 84.7832 111.027 84.7493C111.625 84.7105 112.222 84.8357 112.763 85.0473C113.306 85.2568 113.823 85.5599 114.256 85.9665C114.689 86.3704 115.033 86.877 115.238 87.4379C115.443 87.9975 115.514 88.611 115.408 89.2101C115.354 89.5093 115.252 89.8057 115.083 90.0765C114.903 90.3401 114.705 90.5555 114.475 90.7482C114.022 91.1348 113.498 91.4099 112.952 91.6093C112.403 91.8002 111.833 91.9328 111.226 91.9188C111.087 91.9156 110.977 91.8004 110.98 91.6614C110.984 91.5224 111.099 91.4124 111.238 91.4156L111.239 91.4156L111.244 91.4157C111.751 91.429 112.285 91.3102 112.782 91.1357C113.279 90.9542 113.754 90.7024 114.148 90.3655C114.346 90.203 114.524 90.0015 114.658 89.8069C114.784 89.6051 114.868 89.3678 114.912 89.1201C115.001 88.6236 114.943 88.0929 114.765 87.6108C114.414 86.6323 113.569 85.8853 112.581 85.5165C112.089 85.3247 111.572 85.2186 111.056 85.2519C110.542 85.2815 110.04 85.4428 109.585 85.7017C108.672 86.2245 107.955 87.0791 107.401 88.0012C107.115 88.4663 106.911 88.9413 106.789 89.4616C106.67 89.9728 106.629 90.5107 106.743 90.9992C106.797 91.2438 106.9 91.4684 107.039 91.6605C107.185 91.8472 107.368 92.0024 107.589 92.1045C108.027 92.3069 108.571 92.3538 109.082 92.3018C110.115 92.1979 111.107 91.6003 111.82 90.807L111.827 90.7991C111.876 90.7446 111.96 90.74 112.014 90.789C112.066 90.8356 112.072 90.9144 112.03 90.9689Z" fill="#2D2D2D"/>
<path d="M103.232 101.434C103.082 101.434 102.931 101.408 102.788 101.344C102.375 101.159 102.13 100.717 102.059 100.03C101.837 97.8817 102.164 96.4812 103.151 95.3475C103.98 94.3965 104.571 93.9768 105.042 94.0128C105.203 94.0218 105.433 94.0887 105.615 94.3542C105.694 94.4686 105.665 94.6254 105.551 94.7041C105.436 94.7827 105.279 94.754 105.201 94.6393C105.129 94.5347 105.063 94.5181 105.013 94.5153C104.85 94.5044 104.432 94.644 103.531 95.678C102.632 96.7101 102.351 97.9557 102.56 99.9779C102.611 100.473 102.757 100.778 102.994 100.885C103.371 101.054 103.979 100.717 104.162 100.585C104.274 100.504 104.432 100.53 104.513 100.642C104.594 100.755 104.569 100.912 104.456 100.994C104.425 101.016 103.835 101.434 103.232 101.434Z" fill="#2D2D2D"/>
<path d="M107.706 107.826C107.506 107.826 107.252 107.78 107.002 107.608C106.42 107.207 106.117 106.309 106.102 104.941C106.069 101.914 107.472 99.1831 108.877 97.82C109.74 96.9818 110.444 96.659 110.969 96.8608C111.435 97.0394 111.693 97.5785 111.756 98.509C111.765 98.6478 111.66 98.7677 111.522 98.777C111.384 98.7917 111.263 98.6816 111.254 98.5429C111.207 97.8582 111.042 97.4278 110.789 97.3305C110.475 97.2115 109.907 97.5209 109.227 98.181C108.237 99.1424 106.57 101.647 106.606 104.935C106.622 106.416 106.982 106.977 107.281 107.188C107.587 107.404 107.903 107.298 107.916 107.293C108.046 107.249 108.19 107.316 108.236 107.446C108.283 107.576 108.217 107.719 108.088 107.766C108.076 107.771 107.924 107.826 107.706 107.826Z" fill="#2D2D2D"/>
<path d="M112.898 107.008C112.815 107.008 112.732 106.997 112.649 106.97C112.278 106.853 112.032 106.483 111.916 105.87C111.46 103.462 111.92 100.873 113.115 99.1127C113.861 98.0142 114.451 97.5224 114.99 97.5617C115.333 97.5876 115.617 97.8321 115.835 98.2884C116.251 99.1572 116.242 100.204 116.17 101.207C116.16 101.345 116.045 101.452 115.901 101.44C115.763 101.43 115.658 101.31 115.668 101.171C115.735 100.238 115.746 99.2686 115.381 98.5058C115.246 98.2237 115.102 98.0751 114.952 98.0637C114.772 98.0495 114.341 98.204 113.532 99.3956C112.408 101.05 111.979 103.495 112.411 105.777C112.487 106.182 112.626 106.435 112.8 106.49C113.046 106.569 113.426 106.3 113.571 106.159C113.671 106.062 113.83 106.064 113.928 106.164C114.024 106.263 114.022 106.423 113.923 106.52C113.864 106.576 113.404 107.008 112.898 107.008Z" fill="#2D2D2D"/>
<path d="M116.555 97.1817C116.553 97.1817 116.551 97.1817 116.549 97.1817C116.412 97.1787 116.303 97.0702 116.303 96.9334C116.303 96.8149 116.588 94.7138 117.276 93.7194C117.605 93.2434 117.957 93.0208 118.313 93.0557C118.724 93.0962 119.07 93.4559 119.374 94.1553C119.429 94.2828 119.371 94.4311 119.243 94.4866C119.116 94.5407 118.967 94.4833 118.912 94.3558C118.7 93.8677 118.464 93.5763 118.264 93.5566C118.101 93.537 117.901 93.7008 117.69 94.0062C117.098 94.8608 116.812 96.8004 116.806 96.9372C116.8 97.0724 116.689 97.1817 116.555 97.1817Z" fill="#2D2D2D"/>
<path d="M53.046 37.5545C52.775 38.9091 52.7127 40.4583 54.6169 41.6959C56.0678 42.6391 58.2347 42.7908 60.6625 41.6483C62.628 40.7234 63.6504 40.0926 65.9439 37.3162C68.1015 34.7044 68.8026 29.6524 65.3752 27.3674C62.8862 25.7081 59.7314 25.4569 56.9494 27.1532C54.0218 28.9383 54.1032 31.5954 53.8076 33.2702C53.6373 34.2354 53.3316 36.1264 53.046 37.5545Z" fill="url(#paint17_radial)"/>
<path d="M81.7805 31.4435C79.9587 31.6788 77.5014 33.2219 77.9246 38.5125C78.0674 40.2976 78.8792 41.9722 80.1382 45.2246C80.995 47.4381 84.1389 47.7961 85.9219 46.367C87.705 44.938 87.3119 42.3775 88.0284 39.6907C89.1708 35.4064 87.4928 30.7056 81.7805 31.4435Z" fill="url(#paint18_radial)"/>
<path d="M90.5395 33.8359C90.4021 33.8359 90.2748 33.7472 90.2322 33.6092C90.1798 33.4394 90.2748 33.2593 90.4444 33.2069C93.4757 32.2693 94.6359 31.0593 95.0428 28.4111C95.2897 26.8041 94.7673 24.9911 93.6459 23.5615C92.4698 22.0625 90.7943 21.1463 88.9284 20.9816C85.5147 20.68 84.2024 22.571 84.1893 22.5901C84.0902 22.7374 83.89 22.777 83.743 22.6775C83.5955 22.5784 83.5565 22.3786 83.6556 22.2313C83.7168 22.1403 85.196 20.0054 88.9849 20.3409C91.03 20.5213 92.865 21.524 94.1519 23.1644C95.3812 24.7314 95.9518 26.7293 95.6786 28.5088C95.2318 31.4176 93.9119 32.8077 90.6345 33.8214C90.6028 33.8312 90.5709 33.8359 90.5395 33.8359Z" fill="#2D2D2D"/>
<path d="M45.3303 44.3815C44.7917 43.3613 44.3812 42.2906 44.052 41.1891C43.7264 40.0875 43.4972 38.9545 43.3739 37.806C43.1183 35.4935 43.5039 33.133 44.3112 30.9731C44.7183 29.8907 45.2234 28.845 45.8339 27.8599C46.1444 27.3705 46.4721 26.8907 46.8383 26.4369C47.2036 25.9864 47.5848 25.5535 47.9843 25.1401C49.5783 23.483 51.3519 22.017 53.2567 20.7374C54.2106 20.1 55.2007 19.5133 56.2308 18.9983C56.4858 18.8646 56.7483 18.7453 57.0111 18.6265C57.2703 18.5032 57.5396 18.3916 57.8123 18.2842C58.3581 18.0781 58.9124 17.9027 59.4727 17.7576C61.7178 17.1883 64.021 16.9967 66.3106 16.9926C68.6022 16.9974 70.8912 17.2029 73.146 17.6237C74.2736 17.8321 75.3913 18.1029 76.4917 18.4413C77.5957 18.7697 78.6686 19.2198 79.7062 19.6886C81.7863 20.6341 83.8295 21.7447 85.5945 23.2704C86.4723 24.0326 87.2703 24.9059 87.9119 25.8879C88.5588 26.8664 89.0456 27.9387 89.4318 29.0231C90.1779 31.1936 90.7977 33.3801 91.3062 35.608L92.0423 38.929C92.1704 39.4787 92.301 40.0274 92.4417 40.5736C92.585 41.1243 92.7114 41.7027 92.7962 42.2734C93.1349 44.5672 93.0394 46.9133 92.5052 49.1693C92.2334 50.2956 91.8444 51.4004 91.2992 52.4355C91.0265 52.9524 90.714 53.4511 90.3567 53.919C90.1804 54.1532 89.9868 54.3818 89.7906 54.5919L89.4966 54.9123L89.1894 55.2197C87.5417 56.8546 85.5643 58.1129 83.4758 59.068C81.3723 59.994 79.1566 60.6701 76.8642 60.8819C76.7835 60.8893 76.7121 60.8299 76.7046 60.7493C76.6977 60.6745 76.7482 60.6076 76.8199 60.5923L76.8275 60.5907C77.3719 60.4739 77.9227 60.3417 78.4621 60.1864C79.0044 60.0387 79.5425 59.8767 80.0739 59.6964C81.1374 59.3389 82.187 58.9417 83.1965 58.4596C85.2223 57.5206 87.1276 56.2969 88.6981 54.7251L88.9911 54.4298L89.2709 54.1224C89.4606 53.9172 89.6337 53.7121 89.798 53.4931C90.1281 53.059 90.4191 52.5929 90.6744 52.1066C91.1849 51.1329 91.554 50.0813 91.8116 49.0035C92.3193 46.8448 92.4068 44.5752 92.0775 42.3836C91.9939 41.8326 91.8773 41.3018 91.734 40.7553C91.5904 40.2036 91.457 39.6493 91.3264 39.0948L90.5815 35.7744C90.0762 33.581 89.4491 31.3986 88.7174 29.2806C88.3411 28.2309 87.8795 27.2241 87.2726 26.3096C86.6708 25.3923 85.9231 24.5761 85.0883 23.8537C83.4109 22.4088 81.4241 21.3269 79.3858 20.3937C78.3579 19.9278 77.3352 19.4958 76.2641 19.1746C75.1972 18.8441 74.1075 18.5773 73.0052 18.3713C70.8012 17.9552 68.5538 17.7487 66.3093 17.7395C64.0679 17.7381 61.8134 17.9242 59.6558 18.4673C59.1178 18.6053 58.5894 18.7718 58.0738 18.9651C57.8186 19.0651 57.5638 19.1697 57.3105 19.2896C57.0562 19.4037 56.8021 19.5183 56.5544 19.6476C55.5546 20.1445 54.5882 20.7137 53.6549 21.3341C51.7919 22.5787 50.0454 24.0161 48.4909 25.625C48.1013 26.026 47.7315 26.4446 47.3817 26.8739C47.0346 27.3023 46.7209 27.7599 46.4231 28.2273C45.8371 29.1692 45.3491 30.1747 44.9562 31.214C44.1757 33.2952 43.8092 35.5322 44.0458 37.7393C44.2704 39.9535 44.8193 42.1499 45.5885 44.2587L45.591 44.2658C45.6181 44.34 45.5799 44.422 45.5057 44.4491C45.4377 44.4739 45.3631 44.4438 45.3303 44.3815Z" fill="#2D2D2D"/>
<path d="M63.7581 34.8109C63.3577 37.0995 61.3451 38.1111 59.8689 37.8698C58.4471 37.6374 57.7811 36.6865 57.7857 34.4898C57.7874 33.6598 57.8608 32.5809 58.7814 31.6735C59.4979 30.9672 60.5591 30.7088 61.4866 30.8166C63.4917 31.0497 64.1596 32.5168 63.7581 34.8109Z" fill="white"/>
<path d="M61.1992 36.2125C62.2542 36.2125 63.1094 35.3351 63.1094 34.2528C63.1094 33.1705 62.2542 32.2931 61.1992 32.2931C60.1443 32.2931 59.2891 33.1705 59.2891 34.2528C59.2891 35.3351 60.1443 36.2125 61.1992 36.2125Z" fill="#4C629B"/>
<path d="M61.2572 35.1809C61.7625 35.1809 62.1721 34.7787 62.1721 34.2826C62.1721 33.7865 61.7625 33.3843 61.2572 33.3843C60.7519 33.3843 60.3423 33.7865 60.3423 34.2826C60.3423 34.7787 60.7519 35.1809 61.2572 35.1809Z" fill="#363638"/>
<path d="M85.0979 39.2366C84.7879 41.2852 83.1886 42.0679 81.9254 41.9194C80.7944 41.7865 80.1361 40.8121 80.2788 38.967C80.3361 38.2267 80.4241 37.3446 81.1507 36.5329C81.7162 35.901 82.5725 35.7797 83.3045 35.8762C84.887 36.0847 85.3449 37.6045 85.0979 39.2366Z" fill="white"/>
<path d="M82.7796 40.5025C83.6122 40.5025 84.2872 39.8112 84.2872 38.9585C84.2872 38.1058 83.6122 37.4145 82.7796 37.4145C81.9469 37.4145 81.272 38.1058 81.272 38.9585C81.272 39.8112 81.9469 40.5025 82.7796 40.5025Z" fill="#4C629B"/>
<path d="M82.7794 39.6807C83.1881 39.6807 83.5195 39.3565 83.5195 38.9566C83.5195 38.5566 83.1881 38.2324 82.7794 38.2324C82.3707 38.2324 82.0393 38.5566 82.0393 38.9566C82.0393 39.3565 82.3707 39.6807 82.7794 39.6807Z" fill="#363638"/>
<path d="M58.2365 32.0762C58.1751 32.0762 58.1131 32.0568 58.0606 32.0166C57.9328 31.9194 57.9077 31.7375 58.0044 31.6096C58.0489 31.5508 59.1165 30.1723 61.2888 30.1723C61.2924 30.1723 61.2957 30.1723 61.2992 30.1723C62.5517 30.175 63.2763 30.8263 63.3063 30.854C63.4248 30.9627 63.433 31.147 63.3241 31.2656C63.2156 31.3841 63.0321 31.3923 62.9136 31.2844C62.9029 31.275 62.3103 30.7573 61.2981 30.7551C61.2948 30.7551 61.2918 30.7551 61.2888 30.7551C59.4169 30.7551 58.5063 31.9126 58.4687 31.9619C58.411 32.0367 58.3242 32.0762 58.2365 32.0762Z" fill="#363638"/>
<path d="M85.2271 38.2904C85.1015 37.9792 85.0424 37.6532 84.9091 37.3618C84.7766 37.0716 84.6037 36.7999 84.3658 36.5845C84.1336 36.3634 83.8498 36.2169 83.5267 36.1109C83.2111 36.0066 82.8534 35.9456 82.5295 35.9511L82.5182 35.9512C82.3569 35.954 82.2239 35.8254 82.2212 35.6641C82.2185 35.5027 82.3471 35.3698 82.5084 35.367C82.5197 35.3669 82.5311 35.3674 82.542 35.3684C82.9452 35.4082 83.3115 35.4696 83.6919 35.5794C83.8794 35.6368 84.0661 35.706 84.2478 35.7962C84.4304 35.8863 84.6038 36.0084 84.7597 36.1359C85.0746 36.3965 85.3249 36.7392 85.4871 37.1132C85.6338 37.4929 85.7385 37.8918 85.6074 38.3094C85.5752 38.4121 85.4657 38.4693 85.363 38.437C85.3054 38.419 85.2622 38.3766 85.2409 38.3248L85.2271 38.2904Z" fill="#363638"/>
<path d="M76.9469 33.3923C75.9359 33.4717 75.2833 33.4558 74.8727 33.4162C74.8297 33.4121 74.7904 33.4065 74.7479 33.3993C74.5895 33.3725 74.3946 33.3385 74.2352 33.3105C74.0785 33.2773 73.8844 33.2361 73.7265 33.2018C73.6842 33.1926 73.6454 33.1831 73.6038 33.1708C73.2089 33.0545 72.5984 32.8262 71.6853 32.3748C71.6853 32.3748 63.1985 27.7996 51.1639 27.3627C50.0957 27.3239 49.2094 28.2226 49.2375 29.3171L49.2409 29.4489C49.2559 30.0352 49.5232 30.5983 50.0002 30.9185C50.2906 31.1133 50.5685 31.4519 50.6193 32.0388C50.6193 32.0388 50.7069 37.2371 51.2826 39.6455C51.2826 39.6455 51.7663 41.9799 54.5596 43.4291C54.5596 43.4291 59.7862 45.9879 64.6125 44.4644C64.6125 44.4644 66.6679 44.3288 70.1125 39.4411C70.1125 39.4411 71.3392 37.6237 71.775 36.9725C72.2348 36.2855 72.2263 35.9412 73.5317 36.0566C73.5482 36.0576 73.6146 36.0683 73.6989 36.0835C73.7828 36.1009 74.0593 36.2081 74.0777 36.212C75.0502 36.4186 75.0629 37.0258 75.1964 37.4666C75.3811 38.0762 75.7265 39.6677 75.7265 39.6677C76.7872 43.4702 77.4006 44.8635 78.776 46.0917C81.1926 48.2494 85.1773 48.1098 85.1773 48.1098C88.3076 47.8063 89.575 46.4001 90.3013 45.3176C91.6816 43.2603 92.1421 40.0244 92.1421 40.0244C92.4073 39.4993 92.5311 39.2193 92.8728 39.1465C93.4351 39.0265 93.6339 38.5344 93.8662 37.9952L93.9186 37.8738C94.3516 36.8689 94.1235 35.7751 93.1185 35.413C81.788 31.3306 76.9469 33.3923 76.9469 33.3923ZM69.4876 35.9501C68.8129 38.1168 67.6823 40.5418 65.9618 42.057C64.09 43.707 61.6901 43.7525 59.3603 43.4142C57.3268 43.1223 54.9554 42.5363 53.5178 40.9242C52.0263 39.2538 51.8033 31.8403 53.8635 30.217C54.7924 29.4877 55.8761 29.4047 56.9957 29.4788C59.0556 29.6192 61.4431 29.9201 63.4196 30.5021C69.7602 32.3759 70.0306 34.1975 69.4876 35.9501ZM87.8999 46.1771C86.4174 46.9299 85.102 47.3739 82.7349 46.9104C80.5566 46.4839 79.4311 45.5049 78.5856 43.5512C77.6729 41.4422 77.4784 39.7926 77.6572 37.5301C77.8068 35.7014 78.7102 34.2562 84.2343 34.8695C86.284 35.0971 86.4385 35.0854 88.4 35.7227C89.4665 36.0715 89.7379 36.2406 90.3313 37.2631C91.6375 39.5375 90.2612 44.9781 87.8999 46.1771Z" fill="#CD3536"/>
<path d="M85.0063 48.3911C84.1484 48.3911 80.7837 48.2593 78.5897 46.3003C77.1163 44.9844 76.4879 43.4382 75.4571 39.7428C75.4498 39.7111 75.1081 38.1395 74.9289 37.5477C74.9101 37.485 74.8931 37.4193 74.8759 37.3518C74.7776 36.9637 74.6924 36.6285 74.0195 36.4855C74.0102 36.4835 73.9646 36.4693 73.9031 36.4467C73.8433 36.4249 73.6841 36.3667 73.642 36.3573C73.5819 36.3466 73.5273 36.3374 73.5063 36.3349C72.5561 36.2506 72.4676 36.3906 72.1814 36.8545C72.1295 36.9388 72.073 37.03 72.0074 37.128C71.5718 37.7795 70.3444 39.5977 70.3444 39.5977C67.0769 44.2339 64.9925 44.6948 64.6716 44.739C59.8031 46.2627 54.6538 43.7867 54.4367 43.6802C51.5523 42.184 51.0296 39.8028 51.0086 39.7021C50.4345 37.3001 50.3433 32.257 50.3397 32.0436C50.3056 31.6551 50.1384 31.3481 49.8443 31.1505C49.3095 30.7915 48.9793 30.158 48.9613 29.456L48.9578 29.3246C48.9422 28.7169 49.1798 28.1247 49.6094 27.6995C50.0327 27.2806 50.5882 27.0616 51.1741 27.0832C63.1353 27.5174 71.7327 32.0825 71.8182 32.1285C72.5613 32.4959 73.1917 32.7578 73.6827 32.9024C73.7179 32.9128 73.7502 32.9207 73.7854 32.9284L74.2931 33.0368C74.4425 33.0629 74.6367 33.0967 74.7946 33.1236C74.8306 33.1298 74.8639 33.1344 74.9002 33.138C75.4028 33.1865 76.0697 33.1796 76.8825 33.1168C77.4287 32.9045 82.3511 31.2361 93.2133 35.1499C93.6946 35.3232 94.0518 35.6523 94.2465 36.1014C94.4825 36.6458 94.4565 37.3322 94.1752 37.9845L94.1059 38.1458C93.8674 38.6999 93.6208 39.2729 92.9312 39.42C92.7482 39.4589 92.6603 39.6169 92.4333 40.0681L92.4123 40.11C92.3481 40.5317 91.8598 43.497 90.5335 45.4734C89.7325 46.6675 88.4027 48.078 85.2043 48.3881C85.1835 48.3889 85.115 48.3911 85.0063 48.3911ZM73.1043 35.7558C73.2386 35.7558 73.3883 35.763 73.5563 35.7779C73.5696 35.7787 73.6488 35.7903 73.7485 35.8082C73.8209 35.8231 73.9255 35.8594 74.0954 35.9215L74.159 35.9445C75.1491 36.1537 75.311 36.792 75.4181 37.2143C75.4331 37.2732 75.4476 37.3307 75.4642 37.3854C75.6499 37.9988 75.9856 39.543 75.9998 39.6084C77.0704 43.445 77.6805 44.7383 78.9623 45.883C81.2682 47.9422 85.1289 47.8316 85.1674 47.8303C88.1157 47.5439 89.3368 46.2537 90.0692 45.1618C91.3985 43.1805 91.8609 40.0167 91.8652 39.9849L91.8718 39.9395L91.9338 39.8166C92.1812 39.325 92.3598 38.9698 92.8146 38.8729C93.2024 38.7902 93.3553 38.4749 93.5921 37.9246L93.6615 37.7633C93.8819 37.2519 93.9081 36.7272 93.7333 36.3238C93.5995 36.0155 93.3608 35.7976 93.0238 35.6762C81.9643 31.6913 77.1035 33.6303 77.0559 33.6499L77.0144 33.6674L76.9688 33.6712C76.1049 33.7392 75.3902 33.747 74.8459 33.6947C74.7956 33.6897 74.7503 33.6834 74.7011 33.6751C74.5422 33.6481 74.3469 33.614 74.1869 33.5859L73.6671 33.475C73.618 33.4645 73.5729 33.4533 73.5243 33.4389C73.0029 33.2852 72.3423 33.0115 71.5614 32.6255C71.4683 32.5755 62.9783 28.0714 51.1539 27.6422C50.7259 27.6263 50.3151 27.788 50.003 28.097C49.6823 28.4141 49.5053 28.8562 49.5171 29.3099L49.5206 29.4414C49.534 29.9628 49.7714 30.428 50.1562 30.6862C50.5915 30.9787 50.848 31.4381 50.8979 32.0147C50.8999 32.0858 50.9927 37.2296 51.5545 39.5804C51.5608 39.6101 52.057 41.8157 54.6885 43.1808C54.7338 43.2029 59.8684 45.6683 64.5285 44.1977L64.5943 44.1853C64.6099 44.1838 66.5968 43.9443 69.884 39.28C69.8837 39.2802 71.1075 37.4672 71.5426 36.8169C71.604 36.725 71.6568 36.6396 71.7056 36.5606C72.0203 36.051 72.248 35.7558 73.1043 35.7558ZM84.522 47.3826C83.972 47.3826 83.3698 47.3197 82.681 47.1849C80.4578 46.7495 79.2376 45.762 78.3289 43.6623C77.4432 41.6157 77.1857 39.9478 77.3785 37.5081C77.4345 36.825 77.5959 35.9614 78.356 35.3349C79.3769 34.4934 81.2548 34.2568 84.2653 34.5916L84.6337 34.6322C86.3574 34.8219 86.6223 34.8511 88.4863 35.4567C89.6069 35.8232 89.9338 36.0207 90.5734 37.1227C91.2556 38.311 91.2933 40.4291 90.6698 42.52C90.1053 44.4122 89.1172 45.8726 88.0266 46.4264C86.8528 47.0224 85.8382 47.3826 84.522 47.3826ZM81.9296 35.0058C80.3896 35.0058 79.3285 35.258 78.7115 35.7666C78.2385 36.1566 78.0064 36.6908 77.9362 37.5529C77.7513 39.8907 77.9968 41.4866 78.8424 43.4402C79.6775 45.37 80.7471 46.2362 82.7886 46.6359C85.1841 47.1045 86.4636 46.5926 87.7732 45.9277C88.7299 45.4419 89.6123 44.1083 90.1337 42.3601C90.7157 40.4091 90.698 38.4631 90.0889 37.4024C89.5326 36.444 89.3291 36.3208 88.3131 35.9886C86.504 35.4007 86.2842 35.3765 84.5726 35.1882L84.2036 35.1474C83.3539 35.0532 82.5969 35.0058 81.9296 35.0058ZM61.4598 43.8649C60.7128 43.8649 59.9872 43.7878 59.3202 43.6909C57.4942 43.4289 54.8835 42.8761 53.3093 41.1103C52.2993 39.9792 51.9219 36.7163 52.1406 34.2154C52.2458 33.0133 52.5872 30.8666 53.6903 29.9972C54.7439 29.1699 55.9617 29.13 57.0143 29.1997C58.7792 29.32 61.3363 29.5971 63.4986 30.2337C66.995 31.267 68.9497 32.3578 69.6502 33.6664C70.1205 34.5451 69.9531 35.3927 69.7548 36.0328V36.0332C69.1561 37.9545 68.0446 40.5956 66.1467 42.2669C64.7292 43.5164 63.0466 43.8649 61.4598 43.8649ZM56.3834 29.7362C55.5941 29.7362 54.7565 29.8714 54.036 30.4369C53.3513 30.9764 52.8635 32.3716 52.698 34.2642C52.464 36.9367 52.9255 39.8409 53.7266 40.7379C55.1793 42.3673 57.6602 42.8876 59.4 43.1373C61.3647 43.4223 63.864 43.5336 65.7769 41.8473C67.5775 40.2615 68.6435 37.7199 69.2206 35.8669C69.4708 35.0599 69.4516 34.4806 69.1572 33.9305C68.5403 32.7784 66.6378 31.7447 63.3405 30.7702C61.2268 30.1479 58.7134 29.8762 56.9766 29.7578C56.7841 29.7451 56.5853 29.7362 56.3834 29.7362Z" fill="#8F282D"/>
<defs>
<radialGradient id="paint0_radial" cx="0" cy="0" r="1" gradientUnits="userSpaceOnUse" gradientTransform="translate(56.9117 86.6343) rotate(26.1351) scale(51.3686 67.3934)">
<stop stop-color="white"/>
<stop offset="0.202717" stop-color="#F1F1F4"/>
<stop offset="0.597312" stop-color="#B9BDCD"/>
<stop offset="1" stop-color="#D6D9E2"/>
</radialGradient>
<radialGradient id="paint1_radial" cx="0" cy="0" r="1" gradientUnits="userSpaceOnUse" gradientTransform="translate(63.4469 38.1073) scale(35.7267 36.9565)">
<stop offset="0.428465" stop-color="#F1F1F4"/>
<stop offset="0.830486" stop-color="#CDD3DD"/>
<stop offset="0.956186" stop-color="#E1E3EA"/>
</radialGradient>
<linearGradient id="paint2_linear" x1="66.5412" y1="6.1397" x2="62.6619" y2="119.835" gradientUnits="userSpaceOnUse">
<stop offset="0.458058" stop-color="#3D3D48"/>
<stop offset="0.825318" stop-color="#666573"/>
</linearGradient>
<linearGradient id="paint3_linear" x1="21.3388" y1="71.5096" x2="20.2178" y2="104.363" gradientUnits="userSpaceOnUse">
<stop offset="0.114281" stop-color="#46464F"/>
<stop offset="0.774302" stop-color="#404049"/>
</linearGradient>
<linearGradient id="paint4_linear" x1="55.8249" y1="22.3155" x2="41.6415" y2="16.4487" gradientUnits="userSpaceOnUse">
<stop offset="0.217877" stop-color="#3F3E49"/>
<stop offset="0.995531" stop-color="#5C5B68"/>
</linearGradient>
<linearGradient id="paint5_linear" x1="106.391" y1="88.7966" x2="115.103" y2="88.7966" gradientUnits="userSpaceOnUse">
<stop offset="0.114281" stop-color="#46464F"/>
<stop offset="0.774302" stop-color="#404049"/>
</linearGradient>
<linearGradient id="paint6_linear" x1="102.169" y1="97.708" x2="105.863" y2="97.708" gradientUnits="userSpaceOnUse">
<stop offset="0.114281" stop-color="#46464F"/>
<stop offset="0.774302" stop-color="#404049"/>
</linearGradient>
<linearGradient id="paint7_linear" x1="106.312" y1="102.41" x2="111.57" y2="102.41" gradientUnits="userSpaceOnUse">
<stop offset="0.114281" stop-color="#46464F"/>
<stop offset="0.774302" stop-color="#404049"/>
</linearGradient>
<linearGradient id="paint8_linear" x1="111.907" y1="102.267" x2="115.944" y2="102.267" gradientUnits="userSpaceOnUse">
<stop offset="0.114281" stop-color="#46464F"/>
<stop offset="0.774302" stop-color="#404049"/>
</linearGradient>
<linearGradient id="paint9_linear" x1="115.983" y1="97.8691" x2="119.24" y2="97.8691" gradientUnits="userSpaceOnUse">
<stop offset="0.114281" stop-color="#46464F"/>
<stop offset="0.774302" stop-color="#404049"/>
</linearGradient>
<linearGradient id="paint10_linear" x1="14.4785" y1="83.3598" x2="23.2804" y2="83.3598" gradientUnits="userSpaceOnUse">
<stop offset="0.114281" stop-color="#46464F"/>
<stop offset="0.774302" stop-color="#404049"/>
</linearGradient>
<linearGradient id="paint11_linear" x1="17.134" y1="95.2402" x2="22.443" y2="95.2402" gradientUnits="userSpaceOnUse">
<stop offset="0.114281" stop-color="#46464F"/>
<stop offset="0.774302" stop-color="#404049"/>
</linearGradient>
<linearGradient id="paint12_linear" x1="23.2036" y1="93.6125" x2="26.0724" y2="93.6125" gradientUnits="userSpaceOnUse">
<stop offset="0.114281" stop-color="#46464F"/>
<stop offset="0.774302" stop-color="#404049"/>
</linearGradient>
<linearGradient id="paint13_linear" x1="11.895" y1="94.3137" x2="16.3806" y2="94.3137" gradientUnits="userSpaceOnUse">
<stop offset="0.114281" stop-color="#46464F"/>
<stop offset="0.774302" stop-color="#404049"/>
</linearGradient>
<linearGradient id="paint14_linear" x1="7.65259" y1="90.6468" x2="11.1124" y2="90.6468" gradientUnits="userSpaceOnUse">
<stop offset="0.114281" stop-color="#46464F"/>
<stop offset="0.774302" stop-color="#404049"/>
</linearGradient>
<linearGradient id="paint15_linear" x1="91.2682" y1="30.9704" x2="88.9262" y2="20.0004" gradientUnits="userSpaceOnUse">
<stop offset="0.217877" stop-color="#3F3E49"/>
<stop offset="0.995531" stop-color="#5C5B68"/>
</linearGradient>
<linearGradient id="paint16_linear" x1="71.018" y1="51.1306" x2="72.6887" y2="46.1022" gradientUnits="userSpaceOnUse">
<stop stop-color="#3D3D48"/>
<stop offset="1" stop-color="#555361"/>
</linearGradient>
<radialGradient id="paint17_radial" cx="0" cy="0" r="1" gradientUnits="userSpaceOnUse" gradientTransform="translate(60.33 34.2253) scale(8.95956 7.18086)">
<stop offset="0.276536" stop-color="#403F4B"/>
<stop offset="1" stop-color="#555361"/>
</radialGradient>
<radialGradient id="paint18_radial" cx="0" cy="0" r="1" gradientUnits="userSpaceOnUse" gradientTransform="translate(83.1212 39.2931) scale(7.91587 6.34436)">
<stop offset="0.276536" stop-color="#403F4B"/>
<stop offset="1" stop-color="#555361"/>
</radialGradient>
</defs>
</svg>
